<svg width="38" height="39" viewBox="0 0 38 39" fill="none" xmlns="http://www.w3.org/2000/svg">
<path d="M26.9958 33.0397C25.4441 34.5439 23.7499 34.3064 22.1191 33.5939C20.3933 32.8655 18.8099 32.8339 16.9891 33.5939C14.7091 34.5755 13.5058 34.2905 12.1441 33.0397C4.41743 25.0755 5.55743 12.9472 14.3291 12.5039C16.4666 12.6147 17.9549 13.6755 19.2058 13.7705C21.0741 13.3905 22.8633 12.298 24.8583 12.4405C27.2491 12.6305 29.0541 13.5805 30.2416 15.2905C25.3016 18.2514 26.4733 24.7589 31.0016 26.5797C30.0991 28.9547 28.9274 31.3139 26.9799 33.0555L26.9958 33.0397ZM19.0474 12.4089C18.8099 8.87802 21.6758 5.96469 24.9691 5.67969C25.4283 9.76469 21.2641 12.8047 19.0474 12.4089Z" fill="black"/>
</svg>
