<svg width="30" height="21" viewBox="0 0 30 21" fill="none" xmlns="http://www.w3.org/2000/svg">
<rect y="0.630859" width="13" height="12" rx="2" fill="#1E63DB"/>
<path fill-rule="evenodd" clip-rule="evenodd" d="M11.5 8.63086C12.3284 8.63086 13 9.30243 13 10.1309V14.1309C13 17.7207 10.0899 20.6309 6.5 20.6309H2.5C1.67157 20.6309 1 19.9593 1 19.1309C1 18.3024 1.67157 17.6309 2.5 17.6309H6.5C8.433 17.6309 10 16.0639 10 14.1309V10.1309C10 9.30243 10.6716 8.63086 11.5 8.63086Z" fill="#1E63DB"/>
<rect x="17" y="0.630859" width="13" height="12" rx="2" fill="#1E63DB"/>
<path fill-rule="evenodd" clip-rule="evenodd" d="M28.5 8.63086C29.3284 8.63086 30 9.30243 30 10.1309V14.1309C30 17.7207 27.0899 20.6309 23.5 20.6309H19.5C18.6716 20.6309 18 19.9593 18 19.1309C18 18.3024 18.6716 17.6309 19.5 17.6309H23.5C25.433 17.6309 27 16.0639 27 14.1309V10.1309C27 9.30243 27.6716 8.63086 28.5 8.63086Z" fill="#1E63DB"/>
</svg>
