<svg width="40" height="41" viewBox="0 0 40 41" fill="none" xmlns="http://www.w3.org/2000/svg">
<path d="M36.3424 17.6847H34.9999V17.6156H19.9999V24.2822H29.4191C28.0449 28.1631 24.3524 30.9489 19.9999 30.9489C14.4774 30.9489 9.99992 26.4714 9.99992 20.9489C9.99992 15.4264 14.4774 10.9489 19.9999 10.9489C22.5491 10.9489 24.8683 11.9106 26.6341 13.4814L31.3483 8.76723C28.3716 5.99306 24.3899 4.28223 19.9999 4.28223C10.7958 4.28223 3.33325 11.7447 3.33325 20.9489C3.33325 30.1531 10.7958 37.6156 19.9999 37.6156C29.2041 37.6156 36.6666 30.1531 36.6666 20.9489C36.6666 19.8314 36.5516 18.7406 36.3424 17.6847Z" fill="#FFC107"/>
<path d="M5.25488 13.1914L10.7307 17.2072C12.2124 13.5389 15.8007 10.9489 19.9999 10.9489C22.5491 10.9489 24.8682 11.9106 26.6341 13.4814L31.3482 8.76723C28.3715 5.99306 24.3899 4.28223 19.9999 4.28223C13.5982 4.28223 8.04655 7.89639 5.25488 13.1914Z" fill="#FF3D00"/>
<path d="M20.0001 37.6155C24.3051 37.6155 28.2168 35.968 31.1743 33.2888L26.0159 28.9238C24.2864 30.2391 22.173 30.9505 20.0001 30.9488C15.6651 30.9488 11.9843 28.1846 10.5976 24.3271L5.1626 28.5146C7.92093 33.9121 13.5226 37.6155 20.0001 37.6155Z" fill="#4CAF50"/>
<path d="M36.3425 17.6854H35V17.6162H20V24.2829H29.4192C28.7618 26.1299 27.5778 27.7439 26.0133 28.9254L26.0158 28.9237L31.1742 33.2887C30.8092 33.6204 36.6667 29.2829 36.6667 20.9495C36.6667 19.832 36.5517 18.7412 36.3425 17.6854Z" fill="#1976D2"/>
</svg>
