<svg width="17" height="17" viewBox="0 0 17 17" fill="none" xmlns="http://www.w3.org/2000/svg">
<path d="M7.85402 1.53068C7.93567 1.36231 8.06336 1.22053 8.2223 1.12177C8.38123 1.02301 8.56491 0.971319 8.75202 0.972683C8.93869 0.971607 9.12186 1.02333 9.2804 1.12188C9.43894 1.22044 9.56638 1.36181 9.64802 1.52968L11.578 5.44168L15.895 6.06868C16.0797 6.0955 16.2532 6.17348 16.3959 6.29379C16.5386 6.41409 16.6448 6.57193 16.7024 6.74944C16.7601 6.92696 16.7669 7.11706 16.7221 7.29824C16.6773 7.47943 16.5827 7.64446 16.449 7.77468L13.325 10.8187L14.063 15.1187C14.0945 15.3026 14.074 15.4916 14.0036 15.6645C13.9333 15.8373 13.816 15.987 13.6651 16.0966C13.5141 16.2063 13.3355 16.2715 13.1494 16.285C12.9633 16.2984 12.7772 16.2595 12.612 16.1727L8.75202 14.1427L4.89002 16.1727C4.72482 16.2593 4.53868 16.298 4.35264 16.2844C4.1666 16.2708 3.98807 16.2054 3.83723 16.0957C3.68639 15.986 3.56926 15.8362 3.49907 15.6634C3.42887 15.4905 3.40842 15.3015 3.44002 15.1177L4.17702 10.8187L1.05302 7.77468C0.919319 7.64446 0.824726 7.47943 0.779945 7.29824C0.735163 7.11706 0.74198 6.92696 0.799625 6.74944C0.857269 6.57193 0.963441 6.41409 1.10613 6.29379C1.24881 6.17348 1.42232 6.0955 1.60702 6.06868L5.92402 5.44168L7.85402 1.53068ZM8.75202 13.1427C8.91371 13.1429 9.07293 13.1824 9.21602 13.2577L13.077 15.2877L12.34 10.9877C12.3126 10.828 12.3243 10.6639 12.3743 10.5098C12.4243 10.3556 12.511 10.2159 12.627 10.1027L15.751 7.05868L11.434 6.43068C11.2737 6.40723 11.1216 6.34519 10.9906 6.24991C10.8596 6.15462 10.7537 6.02895 10.682 5.88368L8.75202 1.97368V13.1427Z" fill="#FFE300"/>
</svg>
