<svg width="16" height="16" viewBox="0 0 16 16" fill="none" xmlns="http://www.w3.org/2000/svg">
<path d="M7.64111 0.593961C7.83276 -0.0235064 8.66724 -0.0235088 8.85889 0.593959L10.1905 4.88409C10.2762 5.16023 10.522 5.3472 10.7994 5.3472L15.1085 5.3472C15.7288 5.3472 15.9866 6.17799 15.4849 6.55961L11.9987 9.21106C11.7743 9.38172 11.6804 9.68423 11.7661 9.96037L13.0977 14.2505C13.2894 14.868 12.6143 15.3814 12.1125 14.9998L8.62632 12.3484C8.40193 12.1777 8.09807 12.1777 7.87368 12.3484L4.3875 14.9998C3.88575 15.3814 3.21064 14.868 3.40229 14.2505L4.7339 9.96037C4.81961 9.68423 4.72571 9.38172 4.50132 9.21106L1.01514 6.55961C0.513382 6.17799 0.771253 5.3472 1.39146 5.3472L5.70061 5.3472C5.97797 5.3472 6.22379 5.16023 6.3095 4.88409L7.64111 0.593961Z" fill="#FFE300"/>
</svg>
