<svg width="50" height="49" viewBox="0 0 50 49" fill="none" xmlns="http://www.w3.org/2000/svg">
<path d="M49.2705 24.6711C49.2705 37.7416 38.5593 48.3465 25.335 48.3465C12.1107 48.3465 1.39941 37.7416 1.39941 24.6711C1.39941 11.6005 12.1107 0.995605 25.335 0.995605C38.5593 0.995605 49.2705 11.6005 49.2705 24.6711Z" fill="black" fill-opacity="0.42" stroke="white"/>
<path d="M21.5514 16.0194L33.9887 23.0163C34.102 23.0802 34.1963 23.173 34.2619 23.2852C34.3275 23.3975 34.3621 23.5252 34.3621 23.6553C34.3621 23.7853 34.3275 23.913 34.2619 24.0253C34.1963 24.1375 34.102 24.2303 33.9887 24.2942L21.5514 31.2911C21.4398 31.3538 21.3137 31.3863 21.1856 31.3851C21.0575 31.384 20.932 31.3494 20.8215 31.2846C20.711 31.2199 20.6194 31.1274 20.5557 31.0163C20.4921 30.9052 20.4586 30.7793 20.4587 30.6513V16.6593C20.4588 16.5313 20.4924 16.4055 20.5561 16.2945C20.6198 16.1835 20.7114 16.0912 20.8219 16.0266C20.9324 15.9619 21.0579 15.9274 21.1858 15.9263C21.3138 15.9252 21.4398 15.9567 21.5514 16.0194Z" fill="white"/>
</svg>
