<svg width="204" height="53" viewBox="0 0 204 53" fill="none" xmlns="http://www.w3.org/2000/svg">
<g clip-path="url(#clip0_221_199)">
<path d="M19.5661 53C30.3722 53 39.1322 44.2508 39.1322 33.4581C39.1322 22.6654 30.3722 13.9161 19.5661 13.9161C8.76005 13.9161 0 22.6654 0 33.4581C0 44.2508 8.76005 53 19.5661 53Z" fill="url(#paint0_radial_221_199)"/>
<path d="M38.0845 33.314C43.388 33.314 47.6873 29.02 47.6873 23.7231C47.6873 18.4262 43.388 14.1322 38.0845 14.1322C32.781 14.1322 28.4817 18.4262 28.4817 23.7231C28.4817 29.02 32.781 33.314 38.0845 33.314Z" fill="url(#paint1_radial_221_199)"/>
<path d="M22.7049 11.5396C25.8954 11.5396 28.4819 8.95638 28.4819 5.7698C28.4819 2.58323 25.8954 0 22.7049 0C19.5144 0 16.928 2.58323 16.928 5.7698C16.928 8.95638 19.5144 11.5396 22.7049 11.5396Z" fill="url(#paint2_radial_221_199)"/>
<path d="M49.3586 50.6023V36.504H52.6246V47.9419H59.7037V50.6023H49.3586Z" fill="#3BB7E1"/>
<path d="M59.7629 50.6023L66.0531 36.504H69.2767L75.588 50.6023H72.1609L66.999 38.1561H68.2714L63.0925 50.6023H59.7629ZM62.9059 47.5818L63.7542 45.1036H71.0114L71.8979 47.5818H62.9059Z" fill="#3BB7E1"/>
<path d="M83.0277 50.8438C81.0257 50.8438 79.4606 50.2789 78.3323 49.1492C77.2041 48.0196 76.6386 46.4296 76.6357 44.3792V36.504H79.9017V44.2775C79.9017 45.619 80.1774 46.5863 80.7288 47.1794C81.366 47.7495 82.1913 48.0648 83.0468 48.0648C83.9023 48.0648 84.7276 47.7495 85.3648 47.1794C85.9303 46.5863 86.206 45.619 86.1919 44.2775V36.504H89.4197V44.3919C89.4197 46.4592 88.8541 48.0492 87.7231 49.162C86.592 50.2747 85.0269 50.8353 83.0277 50.8438Z" fill="#3BB7E1"/>
<path d="M92.6433 50.6023V36.504H95.3452L103.671 46.671H102.365V36.504H105.588V50.6023H102.908L94.5605 40.4352H95.8711V50.6023H92.6433Z" fill="#3BB7E1"/>
<path d="M108.935 50.6023V36.504H115.348C116.748 36.4752 118.136 36.7756 119.399 37.3809C120.524 37.9241 121.473 38.7726 122.139 39.8294C122.786 40.9624 123.127 42.2444 123.127 43.5489C123.127 44.8534 122.786 46.1354 122.139 47.2683C121.475 48.3286 120.525 49.1802 119.399 49.7254C118.136 50.3307 116.748 50.631 115.348 50.6023H108.935ZM112.201 47.9207H115.17C116.016 47.9426 116.856 47.761 117.617 47.3912C118.291 47.0518 118.851 46.5232 119.229 45.8704C119.611 45.1529 119.81 44.3529 119.81 43.5404C119.81 42.7279 119.611 41.9279 119.229 41.2105C118.849 40.562 118.289 40.0368 117.617 39.6981C116.855 39.3302 116.016 39.1487 115.17 39.1686H112.201V47.9207Z" fill="#3BB7E1"/>
<path d="M125.604 50.6023V36.504H131.712C132.832 36.4772 133.944 36.6865 134.978 37.1182C135.841 37.4871 136.578 38.0995 137.099 38.8805C137.61 39.7017 137.868 40.6548 137.841 41.6214C137.867 42.5772 137.609 43.5192 137.099 44.3284C136.578 45.1042 135.841 45.7098 134.978 46.0695C133.943 46.4957 132.831 46.7021 131.712 46.6753H127.402L128.853 45.2434V50.6023H125.604ZM128.87 45.6077L127.419 44.0784H131.534C132.341 44.1396 133.142 43.9063 133.79 43.4218C134.029 43.1854 134.219 42.9041 134.349 42.5939C134.478 42.2838 134.545 41.9511 134.545 41.615C134.545 41.279 134.478 40.9463 134.349 40.6361C134.219 40.326 134.029 40.0446 133.79 39.8083C133.139 39.3324 132.339 39.1041 131.534 39.1644H127.419L128.87 37.6139V45.6077ZM134.575 50.6023L131.05 45.4849H134.511L138.078 50.6023H134.575Z" fill="#3BB7E1"/>
<path d="M140.407 50.6023V36.504H143.673V50.6023H140.407Z" fill="#3BB7E1"/>
<path d="M151.655 50.8438C150.558 50.8474 149.465 50.6947 148.411 50.3905C147.512 50.1552 146.665 49.7559 145.912 49.2128L147.019 46.7557C147.679 47.2106 148.402 47.5661 149.166 47.8106C149.974 48.0867 150.822 48.2297 151.677 48.2342C152.204 48.2497 152.73 48.1854 153.237 48.0436C153.576 47.9543 153.881 47.7689 154.115 47.5098C154.301 47.2891 154.401 47.0098 154.4 46.7219C154.405 46.5478 154.367 46.3751 154.289 46.2192C154.211 46.0633 154.096 45.929 153.954 45.828C153.599 45.5781 153.203 45.3931 152.784 45.2815C152.3 45.1417 151.766 45.0104 151.18 44.8791C150.595 44.7478 150.014 44.5953 149.429 44.4089C148.868 44.2295 148.33 43.9864 147.825 43.6845C147.346 43.3926 146.942 42.9921 146.646 42.5152C146.324 41.9529 146.167 41.3114 146.192 40.664C146.185 39.8797 146.412 39.111 146.845 38.4569C147.337 37.748 148.024 37.1963 148.822 36.8683C149.873 36.4379 151.003 36.2344 152.139 36.271C153.022 36.2713 153.902 36.3765 154.76 36.5845C155.566 36.7698 156.335 37.0861 157.038 37.5207L156.033 39.9989C155.412 39.6356 154.748 39.351 154.056 39.1516C153.425 38.9761 152.773 38.8849 152.118 38.8805C151.593 38.8654 151.069 38.9413 150.57 39.105C150.23 39.2061 149.927 39.405 149.7 39.6769C149.525 39.9119 149.433 40.1977 149.437 40.4903C149.433 40.6619 149.471 40.8318 149.549 40.9848C149.627 41.1378 149.741 41.2692 149.882 41.3672C150.235 41.6181 150.632 41.7993 151.053 41.901C151.537 42.0365 152.071 42.1721 152.652 42.3034C153.233 42.4348 153.823 42.5915 154.408 42.7694C154.971 42.9326 155.51 43.169 156.011 43.4726C156.491 43.7645 156.895 44.165 157.191 44.6419C157.512 45.1967 157.669 45.8313 157.644 46.4719C157.65 47.2485 157.417 48.0082 156.978 48.6494C156.477 49.3523 155.79 49.9023 154.993 50.238C153.936 50.6742 152.798 50.8807 151.655 50.8438Z" fill="#3BB7E1"/>
<path d="M162.603 50.6023V39.1643H158.085V36.504H170.386V39.1643H165.869V50.6023H162.603Z" fill="#3BB7E1"/>
<path d="M172.138 50.6023V36.504H175.408V50.6023H172.138Z" fill="#3BB7E1"/>
<path d="M185.507 50.8437C184.471 50.8526 183.441 50.6717 182.47 50.3099C181.567 49.9725 180.741 49.455 180.044 48.7891C179.358 48.133 178.813 47.3447 178.441 46.4719C177.671 44.6019 177.671 42.5043 178.441 40.6343C178.814 39.7603 179.363 38.9717 180.052 38.3171C180.753 37.6538 181.58 37.1368 182.483 36.7962C183.456 36.4324 184.489 36.2514 185.528 36.2625C186.664 36.2455 187.792 36.4618 188.841 36.8979C189.811 37.3087 190.667 37.9483 191.335 38.7619L189.214 40.6936C188.769 40.1735 188.22 39.7522 187.602 39.4566C186.997 39.1749 186.336 39.0303 185.668 39.033C185.048 39.0271 184.433 39.1363 183.853 39.3549C183.316 39.5614 182.827 39.8773 182.419 40.2827C182.014 40.6921 181.695 41.1792 181.482 41.7145C181.041 42.8963 181.041 44.1972 181.482 45.3789C181.695 45.913 182.014 46.3986 182.419 46.8066C182.827 47.2119 183.316 47.5278 183.853 47.7343C184.433 47.953 185.048 48.0621 185.668 48.0562C186.336 48.0589 186.997 47.9143 187.602 47.6326C188.225 47.3296 188.775 46.8961 189.214 46.3617L191.335 48.2977C190.665 49.1114 189.81 49.7533 188.841 50.1702C187.788 50.6225 186.653 50.8518 185.507 50.8437Z" fill="#3BB7E1"/>
<path d="M193.893 49.6618V43.2608H195.28V49.6618H193.893Z" fill="#3BB7E1"/>
<path d="M196.556 49.6618V43.2608H197.947V49.6618H196.556Z" fill="#3BB7E1"/>
<path d="M201.557 49.7339C201.078 49.7437 200.603 49.6377 200.174 49.4246C199.786 49.2342 199.457 48.9412 199.224 48.5774C198.999 48.2038 198.881 47.7762 198.881 47.3404C198.881 46.9046 198.999 46.477 199.224 46.1034C199.458 45.7405 199.787 45.4478 200.174 45.2561C200.604 45.0468 201.078 44.9422 201.557 44.9511C202.015 44.9404 202.469 45.0453 202.876 45.2561C203.247 45.4475 203.546 45.7557 203.724 46.133L202.647 46.6965C202.538 46.4951 202.377 46.3268 202.18 46.2093C201.993 46.1082 201.783 46.0557 201.57 46.0568C201.345 46.0535 201.124 46.1059 200.925 46.2093C200.74 46.3082 200.585 46.4544 200.475 46.6329C200.36 46.8445 200.303 47.0827 200.31 47.3234C200.302 47.5643 200.359 47.8028 200.475 48.0139C200.583 48.1943 200.738 48.3411 200.925 48.4376C201.123 48.5444 201.345 48.5984 201.57 48.5943C201.783 48.5954 201.993 48.5429 202.18 48.4418C202.38 48.3281 202.542 48.1588 202.647 47.9546L203.724 48.5265C203.541 48.8932 203.243 49.1905 202.876 49.3738C202.475 49.6055 202.02 49.7296 201.557 49.7339Z" fill="#3BB7E1"/>
<path d="M201.633 25.46C201.211 25.462 200.791 25.3874 200.395 25.2397C199.344 24.7905 198.508 23.9525 198.062 22.9013L199.245 22.4353C199.558 23.1572 200.13 23.736 200.849 24.0578C201.57 24.3247 202.431 24.1976 203.394 23.685L203.987 24.8076C203.267 25.2116 202.459 25.4354 201.633 25.46Z" fill="#3BB7E1"/>
<path d="M173.851 32.954C173.351 32.954 172.812 32.954 172.24 32.8947L172.333 31.6238C176.006 31.8865 178.589 31.2002 179.573 29.7683C177.983 29.7683 176.986 29.7683 176.859 29.7302C176.676 29.6805 176.516 29.5687 176.407 29.4141C176.298 29.2594 176.246 29.0716 176.26 28.883C176.26 27.9722 177.491 25.9557 179.132 25.5871C179.423 25.5396 179.722 25.5794 179.991 25.7015C180.26 25.8237 180.486 26.0227 180.642 26.2734C181.099 26.9173 181.326 27.6963 181.287 28.4848C186.012 28.4424 193.774 28.328 199.525 28.2306L200.072 28.2052C200.047 27.0128 200.128 25.8205 200.314 24.6425L201.587 24.8246C201.411 25.9653 201.334 27.1191 201.358 28.2729C202.049 28.3873 202.299 28.6288 202.431 28.8533C202.508 28.9825 202.546 29.1311 202.54 29.2813C202.535 29.4315 202.487 29.5771 202.401 29.7006C202.246 29.8873 202.042 30.0284 201.813 30.109C201.584 30.1895 201.337 30.2065 201.099 30.1581C200.974 30.1417 200.854 30.0998 200.746 30.035C200.638 29.9701 200.544 29.8836 200.471 29.7811C200.406 29.6924 200.353 29.5955 200.314 29.493C200.106 29.493 199.89 29.493 199.589 29.5184C192.989 29.6286 185.537 29.7387 181.015 29.7726C180.963 29.9014 180.903 30.0273 180.837 30.1496C180.112 31.4713 178.309 32.954 173.851 32.954ZM177.669 28.5017C178.173 28.5017 178.984 28.5017 180.014 28.5017C180.069 27.5697 179.59 26.875 179.391 26.8368C178.598 27.0232 177.936 27.934 177.664 28.5102L177.669 28.5017Z" fill="#3BB7E1"/>
<path d="M172.923 30.6028H149.475L149.285 30.3995C148.903 29.9759 145.535 26.2691 145.404 24.367L146.676 24.2781C146.752 25.3287 148.703 27.845 150.04 29.332H171.603C171.499 28.7565 171.267 28.2115 170.925 27.7366C170.583 27.2617 170.14 26.869 169.627 26.5868L170.191 25.4473C171.014 25.888 171.702 26.5427 172.183 27.3421C172.664 28.1416 172.919 29.056 172.923 29.9886V30.6028Z" fill="#3BB7E1"/>
<path d="M147.236 30.4122H141.234C141.058 30.4095 140.885 30.3705 140.725 30.2976C140.565 30.2247 140.422 30.1195 140.305 29.9886C139.508 29.1414 139.601 27.0656 139.626 26.6547L140.899 26.7394C140.823 27.8916 141.03 28.9931 141.251 29.1329H146.387L146.871 27.9891L148.042 28.4805L147.236 30.4122Z" fill="#3BB7E1"/>
<path d="M170.017 24.7652C169.519 24.7854 169.022 24.6978 168.561 24.5084C168.099 24.319 167.685 24.0323 167.345 23.668L168.341 22.88L167.845 23.274L168.337 22.8716C168.59 23.1132 168.895 23.2941 169.229 23.4005C169.563 23.507 169.916 23.5361 170.263 23.4858L170.352 24.7567C170.237 24.7652 170.14 24.7652 170.017 24.7652Z" fill="#3BB7E1"/>
<path d="M132.479 32.5981C131.164 32.6103 129.865 32.3021 128.696 31.7L129.298 30.5774C131.657 31.8483 135.173 31.4713 136.679 29.7895C136.844 29.6264 136.965 29.4247 137.032 29.2026C137.098 28.9806 137.108 28.7454 137.06 28.5186C136.496 28.5567 135.822 28.4932 135.457 28.0695C135.328 27.9136 135.245 27.7245 135.218 27.5238C135.191 27.323 135.221 27.1187 135.304 26.9342C135.371 26.7366 135.497 26.5639 135.664 26.439C135.832 26.3142 136.033 26.2431 136.242 26.2352C136.916 26.1971 137.697 26.7987 138.099 27.6501C138.338 28.1365 138.421 28.6846 138.337 29.2198C138.253 29.755 138.005 30.2512 137.629 30.641C136.483 31.9118 134.511 32.5981 132.479 32.5981Z" fill="#3BB7E1"/>
<path d="M123.839 30.3106L123.572 29.0651C124.843 28.8593 126.128 28.7644 127.415 28.7813C129.404 28.7558 129.684 26.2607 129.697 26.1548L130.969 26.2819C130.846 27.5527 129.943 30.0225 127.436 30.0521C126.232 30.0329 125.029 30.1194 123.839 30.3106Z" fill="#3BB7E1"/>
<path d="M123.75 30.3232H123.695C122.438 30.3366 121.182 30.2402 119.942 30.0352L119.182 29.8742L119.488 29.1625C119.64 28.8066 121.04 25.6633 122.834 25.2355L123.127 26.4725C122.453 26.6334 121.6 27.8196 121.006 28.9041C121.579 28.9676 122.465 29.0312 123.7 29.0524H123.734C125.676 29.0524 126.211 26.2945 126.215 26.2649L127.466 26.4936C127.241 27.8238 126.151 30.3232 123.75 30.3232Z" fill="#3BB7E1"/>
<path d="M120.09 30.0521H105.516C105.325 30.0521 103.663 29.8403 103.132 28.7092C102.831 28.0653 102.959 27.3282 103.514 26.5106L104.566 27.2223C104.405 27.4595 104.142 27.8959 104.282 28.167C104.439 28.5059 105.156 28.7304 105.609 28.7855H120.09V30.0521Z" fill="#3BB7E1"/>
<path d="M100.125 30.3232H83.0065L83.2228 29.5734C83.1704 28.5458 83.0613 27.522 82.8962 26.5064C82.6587 24.7441 82.0988 24.3882 81.9164 24.4221L81.7892 23.7994L81.6238 23.1851C81.827 23.1406 82.0373 23.139 82.2411 23.1806C82.4449 23.2222 82.6378 23.306 82.8072 23.4266C83.507 23.8841 83.9609 24.8669 84.156 26.3369C84.3468 27.7222 84.4317 28.5482 84.4698 29.0524H100.125C101.293 29.0204 102.43 28.6655 103.408 28.0272L104.146 29.0608C102.954 29.8561 101.559 30.2941 100.125 30.3232Z" fill="#3BB7E1"/>
<path d="M100.541 24.9432C100.037 24.9273 99.5421 24.8121 99.0835 24.6041C98.6249 24.3962 98.212 24.0997 97.8687 23.7317L98.8272 22.8844L98.3479 23.308L98.823 22.8844C99.0947 23.1815 99.4366 23.4057 99.8174 23.5367C100.198 23.6677 100.606 23.7012 101.003 23.6342L101.275 24.8754C101.033 24.9243 100.787 24.947 100.541 24.9432Z" fill="#3BB7E1"/>
<path d="M104.715 24.4814C102.84 24.4814 101.89 23.757 101.78 23.668L102.581 22.6768C102.615 22.7022 103.429 23.308 105.126 23.1978L105.211 24.4687C105.041 24.456 104.872 24.4814 104.715 24.4814Z" fill="#3BB7E1"/>
<path d="M75.13 27.3705L75.0452 26.0996H75.2572L74.8331 25.9429C74.1544 25.693 74.112 25.227 74.1247 25.0406C74.1502 24.617 74.2011 23.8417 79.9992 22.5454L80.2792 23.7866C78.8203 24.0952 77.3836 24.4999 75.9783 24.9982C77.0217 25.3964 77.6749 25.748 77.5646 26.4004C77.4543 27.0528 76.7036 27.2646 75.13 27.3705Z" fill="#3BB7E1"/>
<path d="M77.6748 30.1665C76.6017 30.1665 75.3462 30.1411 73.8829 30.1029C72.8607 30.0775 71.8978 30.0521 71.1471 30.0521C70.0104 30.0521 69.2087 29.7132 68.7676 29.0439C68.2756 28.2983 68.3053 27.235 68.8482 25.9768L70.0528 26.4004L70.0146 26.4979C69.6668 27.3112 69.5905 28.0102 69.8322 28.3661C70.074 28.7219 70.6805 28.7897 71.1471 28.7897C71.9148 28.7897 72.8861 28.8151 73.9168 28.8405C76.4617 28.9083 81.2419 29.0354 81.8951 28.5059C82.3673 28.0771 82.7707 27.5785 83.0912 27.0274L84.2322 27.5908C83.8479 28.278 83.3552 28.8988 82.7731 29.4294C82.1666 29.9886 80.6184 30.1665 77.6748 30.1665Z" fill="#3BB7E1"/>
<path d="M61.2349 30.1708V28.8999H64.7723C64.3015 28.3619 63.1563 28.1713 62.7703 28.1416L62.8509 26.8707C63.0757 26.8707 65.0692 27.0444 65.9005 28.2814C66.0318 28.478 66.1733 28.6675 66.3247 28.8491C66.4535 28.9588 66.5452 29.1057 66.587 29.2695C66.6287 29.4334 66.6186 29.6062 66.558 29.7641C66.3629 30.1665 65.9642 30.1623 65.6418 30.1538C65.4637 30.1538 65.2176 30.1538 64.8529 30.1538L61.2349 30.1708Z" fill="#3BB7E1"/>
<path d="M55.6827 32.3185C54.6181 31.628 54.8344 29.4166 54.9108 28.7558L54.9871 28.1966H55.5555C55.5767 28.1966 57.3751 28.2262 58.6391 28.1966C58.2027 27.6538 57.6467 27.2189 57.0146 26.9257L57.2775 27.1121L56.5777 28.1712C55.5046 27.4637 55.038 26.8156 55.195 26.2394C55.2798 25.9387 55.547 25.5701 56.3529 25.532C57.672 25.46 59.2117 26.7308 59.814 27.6713C59.9643 27.8493 60.0628 28.0651 60.0988 28.2952C60.1347 28.5253 60.1066 28.7608 60.0176 28.9761C59.9341 29.1268 59.8109 29.2519 59.6614 29.3377C59.5119 29.4236 59.3417 29.467 59.1693 29.4632C58.2955 29.4929 56.917 29.4632 56.1366 29.4632C56.0857 30.3529 56.2129 31.1111 56.3868 31.2298L55.6827 32.3185Z" fill="#3BB7E1"/>
<path d="M49.5621 32.3185C48.4975 31.628 48.7138 29.4166 48.7902 28.7558L48.8665 28.1966H49.4349C49.4561 28.1966 51.2545 28.2262 52.5185 28.1966C52.0821 27.6538 51.5261 27.2189 50.894 26.9257L51.1569 27.1121L50.4571 28.1712C49.384 27.4637 48.9174 26.8156 49.0744 26.2394C49.1592 25.9387 49.4264 25.5701 50.2323 25.532C51.5514 25.46 53.0911 26.7308 53.6934 27.6713C53.8437 27.8493 53.9422 28.0651 53.9782 28.2952C54.0141 28.5253 53.986 28.7608 53.897 28.9761C53.8135 29.1268 53.6903 29.2519 53.5408 29.3377C53.3913 29.4236 53.2211 29.467 53.0487 29.4632C52.1749 29.4929 50.7964 29.4632 50.016 29.4632C49.9693 30.3529 50.0923 31.1111 50.2662 31.2298L49.5621 32.3185Z" fill="#3BB7E1"/>
<path d="M62.7109 27.2053C62.2799 27.2161 61.8585 27.0768 61.519 26.8113C61.1095 26.4523 60.8568 25.9475 60.8149 25.4049L62.0874 25.3371L61.4512 25.371L62.0874 25.3286C62.1056 25.5166 62.1897 25.6922 62.3249 25.8243C62.4147 25.8812 62.5155 25.9186 62.6208 25.9339C62.726 25.9493 62.8334 25.9422 62.9357 25.9132L63.1393 27.1841C62.9973 27.2028 62.854 27.2099 62.7109 27.2053Z" fill="#3BB7E1"/>
</g>
<defs>
<radialGradient id="paint0_radial_221_199" cx="0" cy="0" r="1" gradientUnits="userSpaceOnUse" gradientTransform="translate(19.5661 33.4581) scale(21.6784 21.6516)">
<stop stop-color="white"/>
<stop offset="1" stop-color="#01A1D8"/>
</radialGradient>
<radialGradient id="paint1_radial_221_199" cx="0" cy="0" r="1" gradientUnits="userSpaceOnUse" gradientTransform="translate(38.0845 23.7231) scale(10.6377 10.6246)">
<stop stop-color="white"/>
<stop offset="1" stop-color="#01A1D8"/>
</radialGradient>
<radialGradient id="paint2_radial_221_199" cx="0" cy="0" r="1" gradientUnits="userSpaceOnUse" gradientTransform="translate(22.7049 5.7698) scale(6.40045 6.39253)">
<stop stop-color="white"/>
<stop offset="1" stop-color="#01A1D8"/>
</radialGradient>
<clipPath id="clip0_221_199">
<rect width="204" height="53" fill="white"/>
</clipPath>
</defs>
</svg>
