<svg width="32" height="32" viewBox="0 0 32 32" fill="none" xmlns="http://www.w3.org/2000/svg">
<path d="M22.7332 27.04C21.4266 28.3067 19.9999 28.1067 18.6266 27.5067C17.1732 26.8933 15.8399 26.8667 14.3066 27.5067C12.3866 28.3333 11.3732 28.0933 10.2266 27.04C3.71989 20.3333 4.67989 10.12 12.0666 9.74667C13.8666 9.84 15.1199 10.7333 16.1732 10.8133C17.7466 10.4933 19.2532 9.57333 20.9332 9.69333C22.9466 9.85333 24.4666 10.6533 25.4666 12.0933C21.3066 14.5867 22.2932 20.0667 26.1066 21.6C25.3466 23.6 24.3599 25.5867 22.7199 27.0533L22.7332 27.04ZM16.0399 9.66667C15.8399 6.69333 18.2532 4.24 21.0266 4C21.4132 7.44 17.9066 10 16.0399 9.66667Z" fill="#27425F"/>
</svg>
