<svg width="30" height="30" viewBox="0 0 30 30" fill="none" xmlns="http://www.w3.org/2000/svg">
<path d="M18.7187 3.77379L19.9187 1.60879C19.934 1.58104 19.9437 1.55055 19.9473 1.51905C19.9509 1.48754 19.9482 1.45565 19.9394 1.42518C19.9307 1.39471 19.916 1.36626 19.8962 1.34147C19.8765 1.31667 19.852 1.29601 19.8243 1.28066C19.7965 1.26531 19.7661 1.25558 19.7345 1.25201C19.703 1.24845 19.6711 1.25113 19.6407 1.25989C19.6102 1.26865 19.5818 1.28333 19.557 1.30309C19.5322 1.32285 19.5115 1.34729 19.4962 1.37504L18.2837 3.56254C17.2486 3.10865 16.1307 2.8743 15.0005 2.8743C13.8704 2.8743 12.7524 3.10865 11.7174 3.56254L10.5049 1.37504C10.4739 1.31868 10.4218 1.27694 10.36 1.25901C10.2983 1.24107 10.2319 1.24841 10.1755 1.27941C10.1192 1.31041 10.0774 1.36252 10.0595 1.42429C10.0416 1.48606 10.0489 1.55243 10.0799 1.60879L11.2799 3.77379C10.1385 4.33735 9.17415 5.20409 8.49244 6.27913C7.81074 7.35416 7.43796 8.59604 7.41491 9.86878H22.5862C22.5629 8.59577 22.1897 7.35372 21.5076 6.27866C20.8254 5.2036 19.8605 4.337 18.7187 3.77379ZM11.4999 7.09254C11.3745 7.09253 11.2519 7.05533 11.1477 6.98564C11.0434 6.91595 10.9622 6.8169 10.9143 6.70102C10.8664 6.58515 10.8539 6.45766 10.8784 6.33469C10.903 6.21172 10.9635 6.0988 11.0522 6.01021C11.141 5.92163 11.254 5.86137 11.377 5.83706C11.5001 5.81275 11.6275 5.82548 11.7433 5.87364C11.8591 5.92179 11.958 6.00322 12.0275 6.1076C12.097 6.21199 12.1339 6.33464 12.1337 6.46004C12.1333 6.6279 12.0664 6.78878 11.9476 6.90736C11.8288 7.02594 11.6678 7.09254 11.4999 7.09254ZM18.5024 7.09254C18.377 7.09253 18.2544 7.05533 18.1502 6.98564C18.0459 6.91595 17.9647 6.8169 17.9168 6.70102C17.8689 6.58515 17.8564 6.45766 17.8809 6.33469C17.9055 6.21172 17.966 6.0988 18.0547 6.01021C18.1435 5.92163 18.2565 5.86137 18.3795 5.83706C18.5026 5.81275 18.63 5.82548 18.7458 5.87364C18.8616 5.92179 18.9605 6.00322 19.03 6.1076C19.0995 6.21199 19.1364 6.33464 19.1362 6.46004C19.1358 6.6279 19.0689 6.78878 18.9501 6.90736C18.8313 7.02594 18.6703 7.09254 18.5024 7.09254ZM7.41241 21.4638C7.41208 21.7051 7.4594 21.9442 7.55164 22.1672C7.64388 22.3902 7.77924 22.5928 7.94994 22.7634C8.12065 22.934 8.32336 23.0692 8.54644 23.1613C8.76951 23.2534 9.00858 23.3005 9.24991 23.3H10.4662V27.05C10.4662 27.5011 10.6453 27.9336 10.9643 28.2526C11.2832 28.5715 11.7158 28.7507 12.1668 28.7507C12.6178 28.7507 13.0504 28.5715 13.3693 28.2526C13.6882 27.9336 13.8674 27.5011 13.8674 27.05V23.3H16.1349V27.05C16.1349 27.5009 16.314 27.9333 16.6328 28.2521C16.9516 28.5709 17.384 28.75 17.8349 28.75C18.2858 28.75 18.7182 28.5709 19.037 28.2521C19.3558 27.9333 19.5349 27.5009 19.5349 27.05V23.3H20.7524C20.9934 23.3002 21.2321 23.2528 21.4548 23.1607C21.6775 23.0685 21.8799 22.9334 22.0503 22.7629C22.2207 22.5925 22.3559 22.3902 22.4481 22.1675C22.5402 21.9447 22.5876 21.7061 22.5874 21.465V10.4688H7.41241V21.4638ZM5.07866 10.1763C4.85531 10.1763 4.63415 10.2203 4.42781 10.3058C4.22148 10.3913 4.03401 10.5167 3.87614 10.6746C3.71826 10.8326 3.59307 11.0202 3.50771 11.2266C3.42235 11.433 3.3785 11.6542 3.37866 11.8775V18.9638C3.37866 19.187 3.42263 19.4081 3.50807 19.6143C3.5935 19.8206 3.71872 20.008 3.87658 20.1659C4.03444 20.3237 4.22185 20.4489 4.4281 20.5344C4.63435 20.6198 4.85542 20.6638 5.07866 20.6638C5.30191 20.6638 5.52297 20.6198 5.72922 20.5344C5.93548 20.4489 6.12288 20.3237 6.28074 20.1659C6.4386 20.008 6.56382 19.8206 6.64926 19.6143C6.73469 19.4081 6.77866 19.187 6.77866 18.9638V11.8775C6.77866 11.6543 6.73469 11.4332 6.64926 11.227C6.56382 11.0207 6.4386 10.8333 6.28074 10.6755C6.12288 10.5176 5.93548 10.3924 5.72922 10.3069C5.52297 10.2215 5.30191 10.1775 5.07866 10.1775M24.9187 10.1775C24.6953 10.1775 24.4741 10.2215 24.2678 10.3071C24.0615 10.3926 23.874 10.5179 23.7161 10.6759C23.5583 10.8339 23.4331 11.0214 23.3477 11.2278C23.2623 11.4342 23.2185 11.6554 23.2187 11.8788V18.965C23.2187 19.1883 23.2626 19.4093 23.3481 19.6156C23.4335 19.8219 23.5587 20.0093 23.7166 20.1671C23.8744 20.325 24.0618 20.4502 24.2681 20.5356C24.4744 20.6211 24.6954 20.665 24.9187 20.665C25.1419 20.665 25.363 20.6211 25.5692 20.5356C25.7755 20.4502 25.9629 20.325 26.1207 20.1671C26.2786 20.0093 26.4038 19.8219 26.4893 19.6156C26.5747 19.4093 26.6187 19.1883 26.6187 18.965V11.8775C26.6187 11.4267 26.4396 10.9943 26.1207 10.6755C25.8019 10.3566 25.3695 10.1775 24.9187 10.1775Z" fill="#27425F"/>
</svg>
