<svg width="32" height="31" viewBox="0 0 32 31" fill="none" xmlns="http://www.w3.org/2000/svg">
<path d="M22.093 25.8486C20.868 27.0361 19.5305 26.8486 18.243 26.2861C16.8805 25.7111 15.6305 25.6861 14.193 26.2861C12.393 27.0611 11.443 26.8361 10.368 25.8486C4.26798 19.5611 5.16798 9.9861 12.093 9.6361C13.7805 9.7236 14.9555 10.5611 15.943 10.6361C17.418 10.3361 18.8305 9.4736 20.4055 9.5861C22.293 9.7361 23.718 10.4861 24.6555 11.8361C20.7555 14.1736 21.6805 19.3111 25.2555 20.7486C24.543 22.6236 23.618 24.4861 22.0805 25.8611L22.093 25.8486ZM15.818 9.5611C15.6305 6.7736 17.893 4.4736 20.493 4.2486C20.8555 7.4736 17.568 9.8736 15.818 9.5611Z" fill="white"/>
</svg>
