<svg width="26" height="25" viewBox="0 0 26 25" fill="none" xmlns="http://www.w3.org/2000/svg">
<path d="M15.9766 3.51903L16.9366 1.78703C16.9489 1.76483 16.9567 1.74044 16.9595 1.71524C16.9624 1.69003 16.9602 1.66452 16.9532 1.64014C16.9462 1.61577 16.9345 1.59301 16.9186 1.57317C16.9028 1.55334 16.8833 1.53681 16.8611 1.52453C16.8389 1.51225 16.8145 1.50446 16.7893 1.50161C16.7641 1.49876 16.7386 1.5009 16.7142 1.50791C16.6898 1.51492 16.6671 1.52667 16.6472 1.54247C16.6274 1.55828 16.6109 1.57783 16.5986 1.60003L15.6286 3.35003C14.8005 2.98698 13.9062 2.79954 13.0021 2.79954C12.098 2.79954 11.2036 2.98698 10.3756 3.35003L9.40559 1.60003C9.38079 1.55494 9.3391 1.52155 9.28968 1.50721C9.24027 1.49286 9.18718 1.49873 9.14209 1.52353C9.097 1.54833 9.06361 1.59002 9.04927 1.63943C9.03492 1.68885 9.04079 1.74194 9.06559 1.78703L10.0256 3.51903C9.11218 3.96952 8.34045 4.66283 7.79504 5.52294C7.24962 6.38304 6.95158 7.37673 6.93359 8.39503H19.0706C19.0524 7.37652 18.7541 6.38269 18.2083 5.52256C17.6625 4.66243 16.8904 3.96924 15.9766 3.51903ZM10.2016 6.17403C10.1013 6.17403 10.0032 6.14427 9.91981 6.08851C9.83641 6.03276 9.77143 5.95352 9.73309 5.86082C9.69474 5.76812 9.68476 5.66612 9.70441 5.56775C9.72405 5.46937 9.77244 5.37904 9.84344 5.30817C9.91445 5.23731 10.0049 5.1891 10.1033 5.16965C10.2017 5.1502 10.3037 5.16038 10.3963 5.19891C10.4889 5.23744 10.568 5.30258 10.6236 5.38608C10.6792 5.46959 10.7088 5.56771 10.7086 5.66803C10.7083 5.80232 10.6548 5.93102 10.5597 6.02589C10.4647 6.12075 10.3359 6.17403 10.2016 6.17403ZM15.8036 6.17403C15.7033 6.17403 15.6052 6.14427 15.5218 6.08851C15.4384 6.03276 15.3734 5.95352 15.3351 5.86082C15.2967 5.76812 15.2868 5.66612 15.3064 5.56775C15.326 5.46937 15.3744 5.37904 15.4454 5.30817C15.5164 5.23731 15.6069 5.1891 15.7053 5.16965C15.8037 5.1502 15.9057 5.16038 15.9983 5.19891C16.0909 5.23744 16.17 5.30258 16.2256 5.38608C16.2812 5.46959 16.3108 5.56771 16.3106 5.66803C16.3103 5.80232 16.2568 5.93102 16.1617 6.02589C16.0667 6.12075 15.9379 6.17403 15.8036 6.17403ZM6.93159 17.671C6.93133 17.8641 6.96918 18.0553 7.04297 18.2337C7.11676 18.4121 7.22505 18.5742 7.36162 18.7107C7.49818 18.8472 7.66035 18.9554 7.83881 19.029C8.01727 19.1027 8.20852 19.1404 8.40159 19.14H9.37459V22.14C9.37459 22.5009 9.51793 22.8469 9.77307 23.102C10.0282 23.3572 10.3743 23.5005 10.7351 23.5005C11.0959 23.5005 11.442 23.3572 11.6971 23.102C11.9523 22.8469 12.0956 22.5009 12.0956 22.14V19.14H13.9096V22.14C13.9096 22.5007 14.0529 22.8466 14.3079 23.1017C14.563 23.3567 14.9089 23.5 15.2696 23.5C15.6303 23.5 15.9762 23.3567 16.2313 23.1017C16.4863 22.8466 16.6296 22.5007 16.6296 22.14V19.14H17.6036C17.7964 19.1402 17.9874 19.1023 18.1655 19.0286C18.3437 18.9548 18.5056 18.8467 18.6419 18.7104C18.7783 18.574 18.8864 18.4121 18.9601 18.234C19.0338 18.0558 19.0717 17.8648 19.0716 17.672V8.87503H6.93159V17.671ZM5.06459 8.64103C4.70388 8.64156 4.35812 8.78515 4.10316 9.0403C3.84819 9.29545 3.70485 9.64132 3.70459 10.002V15.671C3.70459 15.8496 3.73977 16.0265 3.80811 16.1915C3.87646 16.3565 3.97664 16.5064 4.10292 16.6327C4.22921 16.759 4.37914 16.8592 4.54414 16.9275C4.70914 16.9959 4.88599 17.031 5.06459 17.031C5.24319 17.031 5.42004 16.9959 5.58504 16.9275C5.75004 16.8592 5.89997 16.759 6.02626 16.6327C6.15254 16.5064 6.25272 16.3565 6.32107 16.1915C6.38941 16.0265 6.42459 15.8496 6.42459 15.671V10.002C6.42406 9.6415 6.28061 9.29588 6.02567 9.04095C5.77074 8.78601 5.42512 8.64256 5.06459 8.64203M20.9366 8.64203C20.5759 8.64256 20.2301 8.78615 19.9752 9.0413C19.7202 9.29645 19.5769 9.64232 19.5766 10.003V15.672C19.5766 15.8506 19.6118 16.0275 19.6801 16.1925C19.7485 16.3575 19.8486 16.5074 19.9749 16.6337C20.1012 16.76 20.2511 16.8602 20.4161 16.9285C20.5811 16.9969 20.758 17.032 20.9366 17.032C21.1152 17.032 21.292 16.9969 21.457 16.9285C21.622 16.8602 21.772 16.76 21.8983 16.6337C22.0245 16.5074 22.1247 16.3575 22.1931 16.1925C22.2614 16.0275 22.2966 15.8506 22.2966 15.672V10.002C22.2961 9.6415 22.1526 9.29588 21.8977 9.04095C21.6427 8.78601 21.2971 8.64256 20.9366 8.64203Z" fill="white"/>
</svg>
