<svg width="152" height="31" viewBox="0 0 152 31" fill="none" xmlns="http://www.w3.org/2000/svg">
<path d="M151.992 3.12244C152.06 2.57431 151.671 2.07515 151.122 2.00752L142.19 0.905543C141.642 0.837919 141.143 1.22745 141.075 1.77558C141.008 2.32371 141.397 2.82287 141.945 2.89049L149.885 3.87003L148.906 11.8098C148.838 12.358 149.227 12.8571 149.776 12.9248C150.324 12.9924 150.823 12.6029 150.89 12.0547L151.992 3.12244ZM0.351094 3.76087C24.4477 24.3117 88.4374 53.0895 151.615 3.78837L150.385 2.21163C88.2362 50.7097 25.3329 22.438 1.64891 2.23913L0.351094 3.76087Z" fill="#27425F"/>
</svg>
