<svg width="205" height="53" viewBox="0 0 205 53" fill="none" xmlns="http://www.w3.org/2000/svg">
<g clip-path="url(#clip0_105_558)">
<path d="M20.3103 53C31.1163 53 39.8764 44.2508 39.8764 33.4581C39.8764 22.6654 31.1163 13.9161 20.3103 13.9161C9.50419 13.9161 0.744141 22.6654 0.744141 33.4581C0.744141 44.2508 9.50419 53 20.3103 53Z" fill="url(#paint0_radial_105_558)"/>
<path d="M38.8286 33.314C44.1321 33.314 48.4314 29.02 48.4314 23.7231C48.4314 18.4262 44.1321 14.1322 38.8286 14.1322C33.5251 14.1322 29.2258 18.4262 29.2258 23.7231C29.2258 29.02 33.5251 33.314 38.8286 33.314Z" fill="url(#paint1_radial_105_558)"/>
<path d="M23.4491 11.5396C26.6396 11.5396 29.226 8.95638 29.226 5.7698C29.226 2.58323 26.6396 0 23.4491 0C20.2585 0 17.6721 2.58323 17.6721 5.7698C17.6721 8.95638 20.2585 11.5396 23.4491 11.5396Z" fill="url(#paint2_radial_105_558)"/>
<path d="M50.1028 50.6023V36.504H53.3687V47.9419H60.4478V50.6023H50.1028Z" fill="white"/>
<path d="M60.5071 50.6023L66.7973 36.504H70.0208L76.3322 50.6023H72.905L67.7431 38.1561H69.0156L63.8367 50.6023H60.5071ZM63.65 47.5818L64.4983 45.1036H71.7556L72.6421 47.5818H63.65Z" fill="white"/>
<path d="M83.7718 50.8438C81.7698 50.8438 80.2047 50.2789 79.0765 49.1492C77.9482 48.0196 77.3827 46.4296 77.3799 44.3792V36.504H80.6458V44.2775C80.6458 45.619 80.9216 46.5863 81.473 47.1794C82.1101 47.7495 82.9355 48.0648 83.7909 48.0648C84.6464 48.0648 85.4718 47.7495 86.1089 47.1794C86.6745 46.5863 86.9502 45.619 86.936 44.2775V36.504H90.1638V44.3919C90.1638 46.4592 89.5983 48.0492 88.4672 49.162C87.3361 50.2747 85.771 50.8353 83.7718 50.8438Z" fill="white"/>
<path d="M93.3875 50.6023V36.504H96.0893L104.415 46.671H103.109V36.504H106.333V50.6023H103.652L95.3046 40.4352H96.6152V50.6023H93.3875Z" fill="white"/>
<path d="M109.679 50.6023V36.504H116.092C117.492 36.4752 118.88 36.7756 120.143 37.3809C121.268 37.9241 122.218 38.7726 122.883 39.8294C123.53 40.9624 123.871 42.2444 123.871 43.5489C123.871 44.8534 123.53 46.1354 122.883 47.2683C122.219 48.3286 121.269 49.1802 120.143 49.7254C118.88 50.3307 117.492 50.631 116.092 50.6023H109.679ZM112.945 47.9207H115.914C116.76 47.9426 117.6 47.761 118.361 47.3912C119.035 47.0518 119.596 46.5232 119.973 45.8704C120.355 45.1529 120.554 44.3529 120.554 43.5404C120.554 42.7279 120.355 41.9279 119.973 41.2105C119.593 40.562 119.033 40.0368 118.361 39.6981C117.599 39.3302 116.76 39.1487 115.914 39.1686H112.945V47.9207Z" fill="white"/>
<path d="M126.348 50.6023V36.504H132.456C133.576 36.4772 134.689 36.6865 135.722 37.1182C136.585 37.4871 137.322 38.0995 137.843 38.8805C138.354 39.7017 138.612 40.6548 138.585 41.6214C138.611 42.5772 138.353 43.5192 137.843 44.3284C137.322 45.1042 136.585 45.7098 135.722 46.0695C134.687 46.4957 133.575 46.7021 132.456 46.6753H128.147L129.597 45.2434V50.6023H126.348ZM129.614 45.6077L128.164 44.0784H132.278C133.085 44.1396 133.887 43.9063 134.534 43.4218C134.773 43.1854 134.963 42.9041 135.093 42.5939C135.222 42.2838 135.289 41.9511 135.289 41.615C135.289 41.279 135.222 40.9463 135.093 40.6361C134.963 40.326 134.773 40.0446 134.534 39.8083C133.883 39.3324 133.083 39.1041 132.278 39.1644H128.164L129.614 37.6139V45.6077ZM135.319 50.6023L131.794 45.4849H135.255L138.822 50.6023H135.319Z" fill="white"/>
<path d="M141.151 50.6023V36.504H144.417V50.6023H141.151Z" fill="white"/>
<path d="M152.4 50.8438C151.302 50.8474 150.209 50.6947 149.155 50.3905C148.256 50.1552 147.409 49.7559 146.656 49.2128L147.764 46.7557C148.423 47.2106 149.146 47.5661 149.91 47.8106C150.718 48.0867 151.566 48.2297 152.421 48.2342C152.948 48.2497 153.474 48.1854 153.982 48.0436C154.32 47.9543 154.625 47.7689 154.86 47.5098C155.045 47.2891 155.145 47.0098 155.144 46.7219C155.149 46.5478 155.111 46.3751 155.033 46.2192C154.955 46.0633 154.841 45.929 154.698 45.828C154.344 45.5781 153.947 45.3931 153.528 45.2815C153.044 45.1417 152.51 45.0104 151.924 44.8791C151.339 44.7478 150.758 44.5953 150.173 44.4089C149.612 44.2295 149.074 43.9864 148.569 43.6845C148.09 43.3926 147.686 42.9921 147.39 42.5152C147.068 41.9529 146.911 41.3114 146.936 40.664C146.929 39.8797 147.156 39.111 147.59 38.4569C148.081 37.748 148.768 37.1963 149.566 36.8683C150.617 36.4379 151.748 36.2344 152.883 36.271C153.766 36.2713 154.646 36.3765 155.504 36.5845C156.31 36.7698 157.079 37.0861 157.782 37.5207L156.777 39.9989C156.156 39.6356 155.492 39.351 154.8 39.1516C154.169 38.9761 153.517 38.8849 152.862 38.8805C152.337 38.8654 151.813 38.9413 151.314 39.105C150.974 39.2061 150.671 39.405 150.444 39.6769C150.27 39.9119 150.177 40.1977 150.181 40.4903C150.177 40.6619 150.216 40.8318 150.293 40.9848C150.371 41.1378 150.486 41.2692 150.627 41.3672C150.979 41.6181 151.376 41.7993 151.797 41.901C152.281 42.0365 152.815 42.1721 153.396 42.3034C153.977 42.4348 154.567 42.5915 155.152 42.7694C155.715 42.9326 156.254 43.169 156.756 43.4726C157.235 43.7645 157.639 44.165 157.935 44.6419C158.256 45.1967 158.414 45.8313 158.389 46.4719C158.394 47.2485 158.161 48.0082 157.723 48.6494C157.221 49.3523 156.534 49.9023 155.738 50.238C154.681 50.6742 153.543 50.8807 152.4 50.8438Z" fill="white"/>
<path d="M163.347 50.6023V39.1643H158.83V36.504H171.13V39.1643H166.613V50.6023H163.347Z" fill="white"/>
<path d="M172.882 50.6023V36.504H176.152V50.6023H172.882Z" fill="white"/>
<path d="M186.251 50.8437C185.215 50.8526 184.185 50.6717 183.214 50.3099C182.311 49.9725 181.485 49.455 180.788 48.7891C180.102 48.133 179.557 47.3447 179.185 46.4719C178.416 44.6019 178.416 42.5043 179.185 40.6343C179.558 39.7603 180.107 38.9717 180.797 38.3171C181.497 37.6538 182.324 37.1368 183.227 36.7962C184.201 36.4324 185.233 36.2514 186.272 36.2625C187.409 36.2455 188.536 36.4618 189.585 36.8979C190.555 37.3087 191.411 37.9483 192.079 38.7619L189.958 40.6936C189.513 40.1735 188.964 39.7522 188.347 39.4566C187.741 39.1749 187.08 39.0303 186.412 39.033C185.793 39.0271 185.177 39.1363 184.597 39.3549C184.06 39.5614 183.572 39.8773 183.163 40.2827C182.758 40.6921 182.439 41.1792 182.226 41.7145C181.785 42.8963 181.785 44.1972 182.226 45.3789C182.439 45.913 182.758 46.3986 183.163 46.8066C183.572 47.2119 184.06 47.5278 184.597 47.7343C185.177 47.953 185.793 48.0621 186.412 48.0562C187.08 48.0589 187.741 47.9143 188.347 47.6326C188.969 47.3296 189.519 46.8961 189.958 46.3617L192.079 48.2977C191.409 49.1114 190.554 49.7533 189.585 50.1702C188.532 50.6225 187.397 50.8518 186.251 50.8437Z" fill="white"/>
<path d="M194.637 49.6618V43.2608H196.024V49.6618H194.637Z" fill="white"/>
<path d="M197.3 49.6618V43.2608H198.691V49.6618H197.3Z" fill="white"/>
<path d="M202.301 49.7339C201.822 49.7437 201.347 49.6377 200.918 49.4246C200.53 49.2342 200.201 48.9412 199.968 48.5774C199.743 48.2038 199.625 47.7762 199.625 47.3404C199.625 46.9046 199.743 46.477 199.968 46.1034C200.203 45.7405 200.531 45.4478 200.918 45.2561C201.349 45.0468 201.822 44.9422 202.301 44.9511C202.759 44.9404 203.213 45.0453 203.62 45.2561C203.992 45.4475 204.29 45.7557 204.468 46.133L203.391 46.6965C203.282 46.4951 203.121 46.3268 202.925 46.2093C202.737 46.1082 202.527 46.0557 202.314 46.0568C202.089 46.0535 201.868 46.1059 201.669 46.2093C201.484 46.3082 201.329 46.4544 201.219 46.6329C201.104 46.8445 201.047 47.0827 201.054 47.3234C201.046 47.5643 201.103 47.8028 201.219 48.0139C201.327 48.1943 201.482 48.3411 201.669 48.4376C201.867 48.5444 202.089 48.5984 202.314 48.5943C202.527 48.5954 202.737 48.5429 202.925 48.4418C203.124 48.3281 203.286 48.1588 203.391 47.9546L204.468 48.5265C204.285 48.8932 203.987 49.1905 203.62 49.3738C203.219 49.6055 202.764 49.7296 202.301 49.7339Z" fill="white"/>
<path d="M202.378 25.46C201.955 25.462 201.535 25.3874 201.139 25.2397C200.088 24.7905 199.252 23.9525 198.806 22.9013L199.99 22.4353C200.302 23.1572 200.874 23.736 201.593 24.0578C202.314 24.3247 203.175 24.1976 204.138 23.685L204.732 24.8076C204.011 25.2116 203.203 25.4354 202.378 25.46Z" fill="white"/>
<path d="M174.595 32.954C174.095 32.954 173.556 32.954 172.984 32.8946L173.077 31.6238C176.75 31.8864 179.333 31.2001 180.317 29.7683C178.727 29.7683 177.73 29.7683 177.603 29.7302C177.42 29.6805 177.26 29.5687 177.151 29.414C177.042 29.2594 176.99 29.0716 177.005 28.8829C177.005 27.9721 178.235 25.9556 179.876 25.5871C180.168 25.5395 180.467 25.5793 180.735 25.7015C181.004 25.8236 181.231 26.0227 181.386 26.2734C181.843 26.9173 182.071 27.6962 182.031 28.4847C186.756 28.4423 194.518 28.328 200.269 28.2305L200.816 28.2051C200.791 27.0127 200.872 25.8205 201.058 24.6424L202.331 24.8246C202.155 25.9653 202.079 27.119 202.102 28.2729C202.793 28.3873 203.043 28.6287 203.175 28.8533C203.252 28.9824 203.29 29.131 203.285 29.2812C203.279 29.4315 203.231 29.577 203.145 29.7005C202.99 29.8872 202.787 30.0283 202.557 30.1089C202.328 30.1895 202.081 30.2064 201.843 30.158C201.718 30.1417 201.598 30.0998 201.49 30.0349C201.382 29.97 201.288 29.8836 201.215 29.781C201.15 29.6924 201.098 29.5955 201.058 29.4929C200.85 29.4929 200.634 29.4929 200.333 29.5183C193.733 29.6285 186.281 29.7386 181.759 29.7725C181.707 29.9014 181.647 30.0272 181.581 30.1495C180.856 31.4713 179.053 32.954 174.595 32.954ZM178.413 28.5016C178.918 28.5016 179.728 28.5016 180.758 28.5016C180.813 27.5697 180.334 26.8749 180.135 26.8368C179.342 27.0232 178.68 27.934 178.409 28.5101L178.413 28.5016Z" fill="white"/>
<path d="M173.667 30.6028H150.22L150.029 30.3995C149.647 29.9759 146.279 26.2691 146.148 24.367L147.42 24.2781C147.497 25.3287 149.448 27.845 150.784 29.332H172.348C172.243 28.7565 172.011 28.2115 171.67 27.7366C171.328 27.2617 170.884 26.869 170.371 26.5868L170.935 25.4473C171.758 25.888 172.446 26.5427 172.927 27.3421C173.408 28.1416 173.664 29.056 173.667 29.9886V30.6028Z" fill="white"/>
<path d="M147.98 30.4122H141.978C141.802 30.4095 141.629 30.3704 141.469 30.2975C141.309 30.2246 141.166 30.1194 141.049 29.9885C140.252 29.1413 140.345 27.0655 140.371 26.6546L141.643 26.7393C141.567 27.8916 141.775 28.993 141.995 29.1328H147.132L147.615 27.989L148.786 28.4804L147.98 30.4122Z" fill="white"/>
<path d="M170.761 24.7653C170.263 24.7854 169.766 24.6978 169.305 24.5085C168.844 24.3191 168.429 24.0324 168.089 23.6681L169.086 22.8801L168.589 23.2741L169.081 22.8716C169.335 23.1133 169.64 23.2942 169.973 23.4006C170.307 23.507 170.66 23.5362 171.007 23.4859L171.096 24.7568C170.982 24.7652 170.884 24.7653 170.761 24.7653Z" fill="white"/>
<path d="M133.224 32.5981C131.908 32.6103 130.609 32.3021 129.44 31.7L130.042 30.5774C132.401 31.8483 135.917 31.4713 137.423 29.7895C137.588 29.6264 137.709 29.4247 137.776 29.2026C137.843 28.9806 137.852 28.7454 137.804 28.5186C137.24 28.5567 136.566 28.4932 136.201 28.0695C136.072 27.9136 135.989 27.7245 135.962 27.5238C135.935 27.323 135.965 27.1187 136.048 26.9342C136.115 26.7366 136.241 26.5639 136.408 26.439C136.576 26.3142 136.777 26.2431 136.986 26.2352C137.66 26.1971 138.441 26.7987 138.844 27.6501C139.083 28.1365 139.165 28.6846 139.081 29.2198C138.997 29.755 138.75 30.2512 138.373 30.641C137.228 31.9118 135.255 32.5981 133.224 32.5981Z" fill="white"/>
<path d="M124.584 30.3105L124.316 29.065C125.587 28.8593 126.872 28.7643 128.159 28.7812C130.148 28.7558 130.428 26.2606 130.441 26.1547L131.714 26.2818C131.591 27.5527 130.687 30.0224 128.18 30.0521C126.976 30.0328 125.773 30.1193 124.584 30.3105Z" fill="white"/>
<path d="M124.495 30.3232H124.439C123.182 30.3366 121.926 30.2402 120.686 30.0352L119.927 29.8742L120.232 29.1625C120.385 28.8066 121.784 25.6633 123.578 25.2355L123.871 26.4725C123.197 26.6334 122.344 27.8196 121.75 28.9041C122.323 28.9676 123.209 29.0312 124.444 29.0524H124.478C126.42 29.0524 126.955 26.2945 126.959 26.2649L128.21 26.4936C127.985 27.8238 126.895 30.3232 124.495 30.3232Z" fill="white"/>
<path d="M120.834 30.0521H106.26C106.069 30.0521 104.407 29.8403 103.877 28.7092C103.575 28.0653 103.703 27.3282 104.258 26.5106L105.31 27.2223C105.149 27.4595 104.886 27.8959 105.026 28.167C105.183 28.5059 105.9 28.7304 106.354 28.7855H120.834V30.0521Z" fill="white"/>
<path d="M100.869 30.3232H83.7507L83.967 29.5734C83.9145 28.5458 83.8055 27.522 83.6404 26.5064C83.4029 24.7441 82.843 24.3882 82.6606 24.4221L82.5333 23.7994L82.3679 23.1851C82.5711 23.1406 82.7814 23.139 82.9852 23.1806C83.1891 23.2222 83.3819 23.306 83.5513 23.4266C84.2512 23.8841 84.705 24.8669 84.9001 26.3369C85.091 27.7222 85.1758 28.5482 85.214 29.0524H100.869C102.038 29.0203 103.174 28.6655 104.152 28.0272L104.89 29.0608C103.698 29.8561 102.303 30.2941 100.869 30.3232Z" fill="white"/>
<path d="M101.285 24.9432C100.782 24.9273 100.286 24.812 99.8276 24.6041C99.369 24.3961 98.9561 24.0996 98.6128 23.7316L99.5714 22.8843L99.0921 23.308L99.5671 22.8843C99.8388 23.1814 100.181 23.4057 100.562 23.5367C100.942 23.6676 101.35 23.7012 101.747 23.6342L102.019 24.8754C101.777 24.9242 101.531 24.947 101.285 24.9432Z" fill="white"/>
<path d="M105.459 24.4814C103.584 24.4814 102.634 23.757 102.524 23.668L103.325 22.6768C103.359 22.7022 104.174 23.308 105.87 23.1978L105.955 24.4687C105.785 24.456 105.616 24.4814 105.459 24.4814Z" fill="white"/>
<path d="M75.8741 27.3705L75.7893 26.0996H76.0014L75.5772 25.9429C74.8986 25.693 74.8562 25.227 74.8689 25.0406C74.8943 24.617 74.9452 23.8417 80.7434 22.5454L81.0233 23.7866C79.5645 24.0952 78.1277 24.4999 76.7224 24.9982C77.7658 25.3964 78.419 25.748 78.3088 26.4004C78.1985 27.0528 77.4477 27.2646 75.8741 27.3705Z" fill="white"/>
<path d="M78.4189 30.1665C77.3458 30.1665 76.0903 30.1411 74.627 30.1029C73.6048 30.0775 72.642 30.0521 71.8912 30.0521C70.7545 30.0521 69.9529 29.7132 69.5117 29.0439C69.0197 28.2983 69.0494 27.235 69.5923 25.9768L70.7969 26.4004L70.7588 26.4979C70.4109 27.3112 70.3346 28.0102 70.5764 28.3661C70.8181 28.7219 71.4247 28.7897 71.8912 28.7897C72.659 28.7897 73.6303 28.8151 74.6609 28.8405C77.2059 28.9083 81.9861 29.0354 82.6392 28.5059C83.1114 28.0771 83.5148 27.5785 83.8353 27.0274L84.9763 27.5908C84.592 28.278 84.0993 28.8988 83.5172 29.4294C82.9107 29.9886 81.3625 30.1665 78.4189 30.1665Z" fill="white"/>
<path d="M61.979 30.1707V28.8998H65.5164C65.0456 28.3618 63.9004 28.1712 63.5144 28.1415L63.595 26.8707C63.8198 26.8707 65.8133 27.0443 66.6447 28.2813C66.7759 28.4779 66.9175 28.6674 67.0688 28.849C67.1977 28.9587 67.2893 29.1056 67.3311 29.2695C67.3729 29.4334 67.3627 29.6061 67.3021 29.764C67.107 30.1665 66.7083 30.1623 66.3859 30.1538C66.2078 30.1538 65.9618 30.1538 65.597 30.1538L61.979 30.1707Z" fill="white"/>
<path d="M56.4269 32.3185C55.3622 31.628 55.5786 29.4166 55.6549 28.7558L55.7313 28.1966H56.2996C56.3208 28.1966 58.1192 28.2262 59.3832 28.1966C58.9468 27.6538 58.3909 27.2189 57.7587 26.9257L58.0217 27.1121L57.3218 28.1712C56.2487 27.4637 55.7822 26.8156 55.9391 26.2394C56.0239 25.9387 56.2911 25.5701 57.097 25.532C58.4161 25.46 59.9558 26.7308 60.5581 27.6713C60.7085 27.8493 60.807 28.0651 60.8429 28.2952C60.8788 28.5253 60.8507 28.7608 60.7617 28.9761C60.6782 29.1268 60.555 29.2519 60.4055 29.3377C60.256 29.4236 60.0858 29.467 59.9134 29.4632C59.0396 29.4929 57.6611 29.4632 56.8807 29.4632C56.8298 30.3529 56.9571 31.1111 57.131 31.2298L56.4269 32.3185Z" fill="white"/>
<path d="M50.3063 32.3185C49.2416 31.628 49.458 29.4166 49.5343 28.7558L49.6107 28.1966H50.179C50.2002 28.1966 51.9986 28.2262 53.2626 28.1966C52.8262 27.6538 52.2703 27.2189 51.6381 26.9257L51.9011 27.1121L51.2012 28.1712C50.1281 27.4637 49.6616 26.8156 49.8185 26.2394C49.9033 25.9387 50.1705 25.5701 50.9764 25.532C52.2955 25.46 53.8352 26.7308 54.4375 27.6713C54.5879 27.8493 54.6864 28.0651 54.7223 28.2952C54.7582 28.5253 54.7301 28.7608 54.6411 28.9761C54.5576 29.1268 54.4344 29.2519 54.2849 29.3377C54.1354 29.4236 53.9652 29.467 53.7928 29.4632C52.919 29.4929 51.5405 29.4632 50.7601 29.4632C50.7134 30.3529 50.8365 31.1111 51.0104 31.2298L50.3063 32.3185Z" fill="white"/>
<path d="M63.455 27.2053C63.024 27.2161 62.6027 27.0769 62.2632 26.8114C61.8536 26.4524 61.6009 25.9476 61.5591 25.4049L62.8315 25.3371L62.1953 25.371L62.8315 25.3287C62.8497 25.5167 62.9338 25.6923 63.0691 25.8243C63.1588 25.8813 63.2597 25.9187 63.3649 25.934C63.4702 25.9493 63.5775 25.9423 63.6798 25.9133L63.8834 27.1842C63.7415 27.2029 63.5982 27.21 63.455 27.2053Z" fill="white"/>
</g>
<defs>
<radialGradient id="paint0_radial_105_558" cx="0" cy="0" r="1" gradientUnits="userSpaceOnUse" gradientTransform="translate(20.3103 33.4581) scale(21.6784 21.6516)">
<stop stop-color="white"/>
<stop offset="1" stop-color="#01A1D8"/>
</radialGradient>
<radialGradient id="paint1_radial_105_558" cx="0" cy="0" r="1" gradientUnits="userSpaceOnUse" gradientTransform="translate(38.8286 23.7231) scale(10.6377 10.6246)">
<stop stop-color="white"/>
<stop offset="1" stop-color="#01A1D8"/>
</radialGradient>
<radialGradient id="paint2_radial_105_558" cx="0" cy="0" r="1" gradientUnits="userSpaceOnUse" gradientTransform="translate(23.4491 5.7698) scale(6.40045 6.39253)">
<stop stop-color="white"/>
<stop offset="1" stop-color="#01A1D8"/>
</radialGradient>
<clipPath id="clip0_105_558">
<rect width="204" height="53" fill="white" transform="translate(0.744141)"/>
</clipPath>
</defs>
</svg>
