<svg width="140" height="30" viewBox="0 0 140 30" fill="none" xmlns="http://www.w3.org/2000/svg">
<path d="M11.1771 4.5004C11.4764 3.57909 12.7798 3.57909 13.0792 4.5004L15.1591 10.9016C15.2929 11.3136 15.6769 11.5926 16.1101 11.5926L22.8408 11.5926C23.8095 11.5926 24.2123 12.8322 23.4286 13.4016L17.9833 17.3578C17.6329 17.6124 17.4862 18.0638 17.6201 18.4758L19.7 24.877C19.9993 25.7984 18.9448 26.5645 18.1611 25.9951L12.7159 22.0389C12.3654 21.7843 11.8908 21.7843 11.5403 22.0389L6.09514 25.9951C5.31142 26.5645 4.25695 25.7984 4.5563 24.877L6.63618 18.4758C6.77006 18.0638 6.6234 17.6124 6.27291 17.3578L0.827705 13.4016C0.0439914 12.8322 0.44677 11.5926 1.41549 11.5926L8.14613 11.5926C8.57936 11.5926 8.96332 11.3136 9.09719 10.9016L11.1771 4.5004Z" fill="#FFE300"/>
<path d="M38.606 4.5004C38.9054 3.57909 40.2088 3.57909 40.5081 4.5004L42.588 10.9016C42.7219 11.3136 43.1059 11.5926 43.5391 11.5926L50.2697 11.5926C51.2384 11.5926 51.6412 12.8322 50.8575 13.4016L45.4123 17.3578C45.0618 17.6124 44.9152 18.0638 45.049 18.4758L47.1289 24.877C47.4283 25.7984 46.3738 26.5645 45.5901 25.9951L40.1449 22.0389C39.7944 21.7843 39.3198 21.7843 38.9693 22.0389L33.5241 25.9951C32.7404 26.5645 31.6859 25.7984 31.9853 24.877L34.0651 18.4758C34.199 18.0638 34.0524 17.6124 33.7019 17.3578L28.2567 13.4016C27.4729 12.8322 27.8757 11.5926 28.8444 11.5926L35.5751 11.5926C36.0083 11.5926 36.3923 11.3136 36.5261 10.9016L38.606 4.5004Z" fill="#FFE300"/>
<path d="M66.0352 4.5004C66.3346 3.57909 67.638 3.57909 67.9373 4.5004L70.0172 10.9016C70.1511 11.3136 70.5351 11.5926 70.9683 11.5926L77.6989 11.5926C78.6676 11.5926 79.0704 12.8322 78.2867 13.4016L72.8415 17.3578C72.491 17.6124 72.3444 18.0638 72.4782 18.4758L74.5581 24.877C74.8575 25.7984 73.803 26.5645 73.0193 25.9951L67.5741 22.0389C67.2236 21.7843 66.749 21.7843 66.3985 22.0389L60.9533 25.9951C60.1696 26.5645 59.1151 25.7984 59.4145 24.877L61.4943 18.4758C61.6282 18.0638 61.4816 17.6124 61.1311 17.3578L55.6859 13.4016C54.9021 12.8322 55.3049 11.5926 56.2736 11.5926L63.0043 11.5926C63.4375 11.5926 63.8215 11.3136 63.9553 10.9016L66.0352 4.5004Z" fill="#FFE300"/>
<path d="M93.4642 4.5004C93.7635 3.57909 95.0669 3.57909 95.3663 4.5004L97.4462 10.9016C97.5801 11.3136 97.964 11.5926 98.3972 11.5926L105.128 11.5926C106.097 11.5926 106.499 12.8322 105.716 13.4016L100.27 17.3578C99.92 17.6124 99.7733 18.0638 99.9072 18.4758L101.987 24.877C102.286 25.7984 101.232 26.5645 100.448 25.9951L95.003 22.0389C94.6525 21.7843 94.1779 21.7843 93.8275 22.0389L88.3822 25.9951C87.5985 26.5645 86.5441 25.7984 86.8434 24.877L88.9233 18.4758C89.0572 18.0638 88.9105 17.6124 88.56 17.3578L83.1148 13.4016C82.3311 12.8322 82.7339 11.5926 83.7026 11.5926L90.4332 11.5926C90.8665 11.5926 91.2504 11.3136 91.3843 10.9016L93.4642 4.5004Z" fill="#FFE300"/>
<path d="M123.331 4.70501C123.449 4.46088 123.634 4.2553 123.865 4.11209C124.095 3.96889 124.362 3.89393 124.633 3.89591C124.904 3.89435 125.169 3.96935 125.399 4.11226C125.629 4.25516 125.814 4.46015 125.932 4.70356L128.731 10.376L134.99 11.2851C135.258 11.324 135.51 11.4371 135.717 11.6115C135.923 11.786 136.077 12.0148 136.161 12.2722C136.245 12.5296 136.254 12.8053 136.189 13.068C136.125 13.3307 135.987 13.57 135.794 13.7588L131.264 18.1726L132.334 24.4076C132.38 24.6743 132.35 24.9484 132.248 25.199C132.146 25.4496 131.976 25.6666 131.757 25.8256C131.538 25.9846 131.279 26.0792 131.009 26.0987C130.739 26.1182 130.469 26.0618 130.23 25.9359L124.633 22.9924L119.033 25.9359C118.793 26.0615 118.524 26.1177 118.254 26.0979C117.984 26.0782 117.725 25.9834 117.506 25.8243C117.288 25.6652 117.118 25.448 117.016 25.1974C116.914 24.9468 116.885 24.6727 116.93 24.4062L117.999 18.1726L113.469 13.7588C113.275 13.57 113.138 13.3307 113.073 13.068C113.008 12.8053 113.018 12.5296 113.102 12.2722C113.185 12.0148 113.339 11.786 113.546 11.6115C113.753 11.4371 114.005 11.324 114.273 11.2851L120.532 10.376L123.331 4.70501ZM124.633 21.5424C124.867 21.5428 125.098 21.6 125.306 21.7092L130.904 24.6527L129.835 18.4177C129.796 18.1861 129.813 17.9482 129.885 17.7247C129.958 17.5011 130.083 17.2986 130.252 17.1344L134.781 12.7206L128.522 11.81C128.289 11.776 128.069 11.6861 127.879 11.5479C127.689 11.4097 127.535 11.2275 127.431 11.0169L124.633 5.34736V21.5424Z" fill="#FFE300"/>
</svg>
