<svg width="36" height="39" viewBox="0 0 36 39" fill="none" xmlns="http://www.w3.org/2000/svg">
<path d="M23.0274 33.9999C22.6668 34.003 22.3108 33.9286 21.9759 33.7898L21.9468 33.7775C20.3592 33.121 20.2139 31.4373 18.9856 30.7796C18.0433 30.275 16.9565 30.5603 16.2948 31.4082C15.562 32.3472 15.1845 33.4203 13.917 33.8293C12.5632 34.2662 11.4294 33.7396 10.6663 32.5178C9.87896 31.2571 8.58948 30.6081 7.18669 31.2981C6.83684 31.4702 6.53263 31.7101 6.16262 31.8411L6.09674 31.8647C4.42201 32.4422 2.60662 30.8226 3.07486 29.0006C3.13079 28.7829 3.21317 28.5736 3.2863 28.3618L6.90929 17.0764L9.23347 9.04564C9.4396 8.35057 9.45127 8.53349 9.45191 7.73624L9.45213 6.2205C9.45299 5.60595 9.52729 5.17516 10.2211 5.00478C10.3723 4.99024 10.5169 5.01206 10.6666 5.02763L13.5828 5.34802C14.046 5.38671 14.5047 5.43064 14.9685 5.46053L17.0064 5.55839L20.3443 5.51989L25.3015 5.03873C25.4488 5.02316 25.6344 4.98089 25.779 5.0104L25.8011 5.01543C26.1158 5.08329 26.3978 5.309 26.5085 5.62814L26.5177 5.65761C26.5865 5.83783 26.5503 6.13085 26.5504 6.32535L26.552 8.32716C26.5562 8.46855 26.604 8.5927 26.6515 8.72514L27.5547 11.8596C27.5792 11.9663 27.6112 12.0924 27.65 12.1953L29.8638 19.5874L32.9277 29.0509C32.944 29.1011 32.9558 29.1489 32.9644 29.2013L32.9698 29.2346C33.1567 30.3571 32.4574 31.4737 31.4234 31.8299L31.3926 31.8404C30.0259 32.3204 29.6031 31.5626 28.584 31.193C27.4055 30.7655 26.1825 31.244 25.4752 32.2976C24.816 33.2797 24.3722 33.9765 23.0274 33.9999ZM10.4895 6.12113L10.4825 8.00145L25.5135 7.97866L25.514 7.82696L25.4959 6.12886C25.3292 6.16591 25.1509 6.15497 24.9808 6.17394L20.9141 6.59241L17.7524 6.65458L14.9603 6.58731L12.2138 6.30775C11.6415 6.23844 11.0576 6.22139 10.4895 6.12113ZM10.3031 9.07645L9.62357 11.5349L7.3025 19.3417L4.53782 27.9612C4.3385 28.5506 3.95549 29.2172 4.07601 29.8588L4.0794 29.8797C4.19671 30.5482 5.02535 30.9859 5.65963 30.8607L5.86423 30.7973C6.0259 30.7435 6.17943 30.6391 6.29709 30.5129C9.15492 26.6509 10.26 22.7124 11.2108 17.9649L12.1211 12.5114C12.2565 11.7566 12.3982 11.0053 12.595 10.2646L12.9149 9.21055C12.5752 9.1766 12.2324 9.18071 11.8917 9.16554L11.2372 9.11569C10.9369 9.10663 10.5979 9.13429 10.3031 9.07645ZM25.1341 9.07194L23.0817 9.20149L23.4549 10.4577L25.3611 20.6163L25.5777 21.449L26.534 24.547L26.87 25.4438C27.0332 25.8806 27.2342 26.3224 27.4381 26.7404L28.0895 28.0292C28.38 28.5567 29.4987 30.4955 30.006 30.7378L30.0819 30.7728C30.6969 30.9951 31.4171 30.7996 31.7736 30.2147C32.1344 29.6228 31.857 29.0987 31.6594 28.5195L28.6457 19.1465L25.7193 9.18041C25.7072 9.13914 25.698 9.09701 25.6663 9.06868L25.1341 9.07194ZM21.5946 9.29731L18.598 9.39514C18.5603 9.48216 18.5745 9.63135 18.5736 9.72784L18.4777 11.6708C18.4654 11.8679 18.4293 12.0615 18.4228 12.2605L18.4215 17.7605C18.4284 17.9373 18.4667 18.1109 18.4752 18.2875L18.4977 19.1805C18.5045 19.3105 18.5249 19.4349 18.5389 19.5634L18.6127 20.4086C18.6501 20.7813 18.6696 21.1597 18.724 21.5306L19.1563 24.181C19.2421 24.5477 19.4719 25.2431 18.8992 25.3936C18.3544 25.5368 18.2071 24.7553 18.1343 24.3974C18.0629 24.0461 17.9839 23.6895 17.9365 23.334L17.6643 21.4681L17.3666 17.5571L17.3617 13.2329C17.364 12.6179 17.4059 11.9707 17.4417 11.3536L17.5294 9.9081C17.539 9.75758 17.5954 9.53945 17.5624 9.3971L13.976 9.29613C13.9208 9.37443 13.9041 9.46785 13.8786 9.55938L13.3646 11.538L12.6264 16.0408L11.8954 19.7576C11.2862 22.3127 10.6224 24.9023 9.47372 27.2637L8.071 29.8421C8.05077 29.8859 8.01997 29.9244 7.99238 29.9634C11.5886 29.9613 11.0321 32.3796 12.5519 32.8128C13.5352 33.0931 14.3124 32.4835 14.8414 31.6793C15.0236 31.4024 15.1732 31.1055 15.3713 30.8393C16.8356 28.8711 19.4006 29.0421 20.7461 30.9967L21.1427 31.6283C21.4534 32.0977 21.8133 32.5027 22.3144 32.7524C23.0346 33.1112 23.8581 32.8054 24.3171 32.1656C24.4688 31.9542 24.5838 31.7204 24.7308 31.5061C25.5671 30.2873 26.665 29.9312 28.0218 29.9536L27.995 29.9317C27.9718 29.9113 27.6641 29.4013 27.6348 29.3524C25.9321 26.5125 24.9181 23.3259 24.1716 20.0869L23.2366 15.2826L22.9157 13.0945C22.8693 12.8127 22.1767 9.38219 22.0419 9.28119C21.9985 9.24872 21.6771 9.28481 21.5946 9.29731Z" fill="white"/>
</svg>
