<svg width="34" height="34" viewBox="0 0 34 34" fill="none" xmlns="http://www.w3.org/2000/svg">
<path d="M16.2044 1.04494C16.6046 0.519331 17.3954 0.51933 17.7956 1.04494L20.7972 4.9871C21.0343 5.29846 21.4312 5.44292 21.8129 5.35679L26.6462 4.2663C27.2907 4.1209 27.8965 4.62925 27.8652 5.28913L27.6306 10.2384C27.612 10.6293 27.8232 10.9951 28.171 11.1745L32.5745 13.4459C33.1616 13.7487 33.299 14.5276 32.8508 15.013L29.4898 18.6535C29.2243 18.941 29.151 19.357 29.3021 19.718L31.2153 24.2885C31.4704 24.8979 31.075 25.5828 30.4197 25.6666L25.5049 26.2949C25.1167 26.3446 24.7931 26.616 24.6769 26.9897L23.2046 31.7207C23.0083 32.3515 22.2651 32.622 21.7093 32.265L17.5404 29.5872C17.2112 29.3757 16.7888 29.3757 16.4596 29.5872L12.2907 32.265C11.7349 32.622 10.9917 32.3515 10.7954 31.7207L9.32314 26.9897C9.20686 26.616 8.88331 26.3446 8.49513 26.2949L3.58033 25.6666C2.92503 25.5828 2.52961 24.8979 2.7847 24.2885L4.69792 19.718C4.84903 19.357 4.77569 18.941 4.51023 18.6535L1.14918 15.013C0.701045 14.5276 0.838373 13.7487 1.42549 13.4459L5.82898 11.1745C6.17678 10.9951 6.38796 10.6293 6.36943 10.2384L6.1348 5.28913C6.10352 4.62925 6.70934 4.1209 7.35377 4.2663L12.1871 5.35679C12.5688 5.44292 12.9657 5.29846 13.2028 4.9871L16.2044 1.04494Z" fill="#1D63DB"/>
<path d="M11.2223 13.2C11.2223 12.3893 11.457 11.7547 11.9263 11.296C12.4063 10.8373 13.0197 10.608 13.7663 10.608C14.513 10.608 15.121 10.8373 15.5903 11.296C16.0703 11.7547 16.3103 12.3893 16.3103 13.2C16.3103 14.0213 16.0703 14.6613 15.5903 15.12C15.121 15.5787 14.513 15.808 13.7663 15.808C13.0197 15.808 12.4063 15.5787 11.9263 15.12C11.457 14.6613 11.2223 14.0213 11.2223 13.2ZM21.4943 10.8L15.2063 22H13.0303L19.3023 10.8H21.4943ZM13.7503 11.952C13.1637 11.952 12.8703 12.368 12.8703 13.2C12.8703 14.0427 13.1637 14.464 13.7503 14.464C14.0383 14.464 14.2623 14.3627 14.4223 14.16C14.5823 13.9467 14.6623 13.6267 14.6623 13.2C14.6623 12.368 14.3583 11.952 13.7503 11.952ZM18.2463 19.584C18.2463 18.7627 18.481 18.128 18.9503 17.68C19.4303 17.2213 20.0437 16.992 20.7903 16.992C21.537 16.992 22.1397 17.2213 22.5983 17.68C23.0677 18.128 23.3023 18.7627 23.3023 19.584C23.3023 20.4053 23.0677 21.0453 22.5983 21.504C22.1397 21.9627 21.537 22.192 20.7903 22.192C20.033 22.192 19.4197 21.9627 18.9503 21.504C18.481 21.0453 18.2463 20.4053 18.2463 19.584ZM20.7743 18.336C20.1663 18.336 19.8623 18.752 19.8623 19.584C19.8623 20.4267 20.1663 20.848 20.7743 20.848C21.3717 20.848 21.6703 20.4267 21.6703 19.584C21.6703 18.752 21.3717 18.336 20.7743 18.336Z" fill="white"/>
</svg>
