<svg width="36" height="36" viewBox="0 0 36 36" fill="none" xmlns="http://www.w3.org/2000/svg">
<path d="M23.3613 30.8243C22.6317 30.9284 21.8998 30.9443 21.165 30.9648L15.7206 31C15.5836 30.9961 15.4494 30.9707 15.3125 30.9661L14.3449 30.9382C14.1792 30.9261 14.0159 30.8933 13.8505 30.8833L12.2123 30.7525C10.9344 30.612 9.98113 30.2798 9.61249 28.8471C9.48953 28.3693 9.5374 27.8478 9.53747 27.3563L9.5379 18.5781C9.53762 18.4011 9.56383 18.1557 9.51312 17.9858L9.38397 17.3915C8.88528 17.8196 8.67423 17.8619 8.03804 17.7337C6.27364 17.3784 3.89596 16.0012 3.19046 14.3092C2.80455 13.3838 3.03524 12.8481 3.61129 12.1263L5.67848 9.76387C6.49869 8.85955 7.09889 8.11245 8.25561 7.6211C8.91632 7.3404 9.60307 7.15744 10.254 6.84656L12.2725 5.84055C13.1404 5.39228 13.4533 5.1447 14.4444 5.03192C14.5304 5.01461 14.6803 5.01279 14.7607 5.0472L14.7815 5.05669C15.1204 5.19696 15.1932 5.58401 15.3954 5.85761C16.5806 7.46118 19.8727 7.37861 20.8251 5.62916C20.9505 5.399 20.9885 5.17097 21.2651 5.0633L21.2917 5.05339C21.9817 4.78964 23.1609 5.57445 23.7339 5.85249L26.2192 7.03964L27.441 7.49161C28.7909 7.98935 29.4156 8.64656 30.3332 9.70084L32.4946 12.2801C32.6218 12.4281 32.7894 12.5996 32.8701 12.7775L32.8776 12.7942C33.1907 13.4221 32.8444 14.2637 32.4976 14.8002C31.6504 16.1112 30.2945 17.0174 28.8358 17.5329C27.9851 17.8336 27.4568 18.0445 26.7462 17.4519L26.6184 17.8304C26.454 18.2554 26.5417 18.876 26.5416 19.327L26.5415 27.8225C26.5412 28.6734 26.5619 29.205 25.9516 29.9192C25.2998 30.6821 24.2941 30.75 23.3613 30.8243ZM21.6885 6.03534C20.4392 8.58055 16.0229 8.60298 14.5169 6.33833L14.3499 6.04963C14.221 6.06057 14.1026 6.06964 13.9811 6.11805C13.9128 6.24961 14.0644 6.78677 14.1306 6.95124L14.2667 7.35014C14.4016 7.70151 14.5299 8.06613 14.7295 8.388C15.2482 9.32719 16.0465 10.1263 17.0996 10.4362C19.5069 11.1448 21.3186 9.11 21.9312 7.00072L22.1452 6.11716L21.6885 6.03534ZM13.0384 6.57723L10.3593 7.88713C8.86397 8.54831 7.72587 8.60344 6.71124 10.0842C9.34186 10.8341 11.0137 13.1435 10.397 15.838C10.3315 16.1242 10.249 16.4564 10.1355 16.7289L10.1473 16.7413C10.6037 17.3053 10.5197 19.0666 10.5198 19.7509L10.5181 27.3556L11.8511 27.5398L15.6409 27.7712C15.7764 27.7765 15.9092 27.8016 16.0453 27.8045L20.2696 27.8054C20.3977 27.802 20.5229 27.7751 20.6509 27.7716L21.624 27.7617L25.5765 27.4903L25.5767 25.4194L25.5792 18.1413C25.5973 17.7242 25.7182 17.2868 25.8836 16.902C25.9488 16.7503 25.991 16.7541 25.9324 16.6012L25.8188 16.2993C25.6154 15.7182 25.5753 15.3513 25.5753 14.7527C25.5751 12.3641 27.191 10.873 29.2583 9.99008C28.3092 8.6691 27.1327 8.51479 25.745 7.90653L23.0291 6.58839C22.9698 6.99493 22.8568 7.36293 22.719 7.74899C21.8315 10.235 19.4851 12.2258 16.7674 11.3704C14.7082 10.7222 13.3988 8.5974 13.0384 6.57723ZM30.0225 10.9165C29.5141 10.955 29.0905 11.165 28.6552 11.4128C27.5736 12.0286 26.8269 12.8325 26.5898 14.0858C26.4585 14.7804 26.5234 16.0542 27.1232 16.5596L27.1269 16.5391C27.1689 16.3175 27.2778 16.1016 27.3943 15.9096C28.1608 14.6861 30.0938 13.2394 31.446 12.5545L30.3084 11.1401C30.252 11.0654 30.201 10.9806 30.131 10.9179L30.0225 10.9165ZM5.90575 10.9563L4.54525 12.536C5.70183 13.2263 8.11739 14.731 8.77141 15.948C8.86533 16.1231 8.94064 16.3149 9.05071 16.4801L9.05794 16.465C9.15544 16.2651 9.28575 16.094 9.36717 15.8829C9.7806 14.811 9.43728 13.3509 8.75942 12.4732C8.12523 11.6521 6.9533 11.018 5.90575 10.9563ZM3.95078 13.3694C3.94545 13.4813 3.97241 13.5744 4.00363 13.6804L4.04009 13.787C4.57863 15.1506 6.59146 16.3951 8.04524 16.7304C7.7335 15.8942 6.57209 15.0262 5.86547 14.5516L4.22897 13.5079C4.16563 13.4705 4.02838 13.3468 3.95078 13.3694ZM31.9599 13.3694C31.6859 13.517 31.4273 13.7291 31.1636 13.8982C30.162 14.5402 28.5415 15.5161 28.114 16.7018L28.1645 16.7044C29.4445 16.3529 31.0449 15.3542 31.7209 14.1659C31.7821 14.0584 32.1197 13.3726 31.9599 13.3694ZM10.5471 28.3341C10.5153 28.3829 10.5219 28.4185 10.5317 28.4763L10.6364 28.8056C10.8967 29.5554 11.4748 29.6969 12.1765 29.7656L15.4364 30.011L20.5948 30.0112L21.955 29.9584C22.2427 29.9407 22.5319 29.9049 22.8214 29.8859L23.2399 29.838C23.8861 29.7828 24.6965 29.8256 25.1744 29.3191C25.385 29.0707 25.5189 28.7927 25.5674 28.4706C25.1433 28.4672 24.7257 28.5484 24.3037 28.5802L21.746 28.7411C21.1606 28.7747 20.5669 28.7376 19.9802 28.7535C19.8106 28.7581 19.6449 28.7973 19.4731 28.8006L16.5811 28.7978L13.3946 28.6607C13.2803 28.654 13.1697 28.6325 13.0564 28.6238L11.3836 28.4586C11.1072 28.4215 10.8196 28.3914 10.5471 28.3341Z" fill="white"/>
</svg>
